<svg id="Capa_1" enable-background="new 0 0 512 512" height="512" viewBox="0 0 512 512" width="512" xmlns="http://www.w3.org/2000/svg"><g><path d="m226.481 376.161c16.275 16.37 42.764 16.37 59.039 0l164.335-165.296c47.168-47.168 45.848-124.46-3.957-169.943-44.44-40.583-112.651-40.903-157.452-.718-15.304 13.727-26.111 30.43-32.445 48.36-6.334-17.93-17.141-34.633-32.445-48.36-44.801-40.185-113.012-39.865-157.452.718-49.806 45.482-51.125 122.775-3.957 169.943z" fill="#df75a5"/><path d="m445.887 40.911c-7.878-7.193-16.539-13.09-25.688-17.74-.255 2.17-.402 4.374-.402 6.616v94.787c-1.306-.095-2.624-.143-3.954-.143-29.723 0-53.905 24.182-53.905 53.905v103.159l-13.8 31.683 101.72-102.314c47.169-47.17 45.846-124.472-3.971-169.953z" fill="#dd5790"/><path d="m66.115 40.911c7.878-7.193 16.539-13.09 25.688-17.74.255 2.17.402 4.374.402 6.616v94.787c1.306-.095 2.624-.143 3.954-.143 29.723 0 53.905 24.182 53.905 53.905v103.159l13.8 31.683-101.718-102.313c-47.171-47.171-45.848-124.473 3.969-169.954z" fill="#dd5790"/><g><path d="m424.809 194.878c.063.023.127.042.19.065v-.136c-.063.023-.126.048-.19.071z" fill="#ffb983"/></g><path d="m444.772 178.337v-148.549c0-15.803 12.317-29.179 28.109-29.766 8.26-.307 15.829 2.821 21.332 8.107 5.266 5.037 8.648 12.04 8.981 19.856l8.712 224.309c.338 8.691-.234 17.394-1.705 25.967l-27.966 162.975v60.462c0 5.69-4.612 10.302-10.302 10.302h-84.502c-5.69 0-10.302-4.612-10.302-10.302v-60.462l-11.618-19.75c-6.021-10.235-9.195-21.894-9.195-33.768v-16.899c0-9.152 1.886-18.205 5.54-26.595l25.054-57.523v-108.364c0-15.978 12.952-28.93 28.93-28.93 15.979 0 28.932 12.952 28.932 28.93z" fill="#ffddce"/><path d="m511.906 252.293-8.712-224.309c-.333-7.815-3.715-14.819-8.981-19.855-4.078-3.916-9.291-6.644-15.078-7.672l8.651 222.726c.338 8.691-.234 17.394-1.705 25.967l-27.966 162.975v12.488c0 9.196-7.455 16.65-16.65 16.65h-64.335v60.434c0 5.69 4.612 10.302 10.302 10.302h84.502c5.69 0 10.302-4.612 10.302-10.302v-60.462l27.966-162.975c1.47-8.573 2.041-17.275 1.704-25.967z" fill="#ffcbbe"/><path d="m437.045 257.929c4.268 0 7.726-3.459 7.726-7.726v-71.866c0-11.11-6.266-20.751-15.453-25.598v97.464c.001 4.267 3.46 7.726 7.727 7.726z" fill="#ffcbbe"/><g><path d="m87.193 194.878c-.063.023-.127.042-.19.065v-.136c.063.023.126.048.19.071z" fill="#ffb983"/></g><path d="m67.231 113.084v65.251c0-15.79 12.646-28.622 28.363-28.922 16.217-.31 29.491 13.353 29.491 29.573v107.713l25.054 57.525c3.657 8.386 5.542 17.441 5.542 26.589v16.905c0 11.878-3.173 23.529-9.189 33.769l-11.62 19.748v60.461c0 5.69-4.612 10.302-10.302 10.302h-84.504c-5.69 0-10.302-4.612-10.302-10.302v-60.461l-27.959-162.973c-1.473-8.571-2.05-17.276-1.71-25.971l8.715-224.31c.33-7.809 3.709-14.814 8.983-19.852 5.501-5.285 13.073-8.417 21.325-8.107 15.792.587 28.113 13.959 28.113 29.762v47.038z" fill="#ffddce"/><path d="m150.145 344.222-25.054-57.523v-108.362c0-15.977-12.952-28.93-28.93-28.93-4.494 0-8.749 1.025-12.544 2.853 9.696 4.672 16.386 14.593 16.386 26.076v99.691c0 5.72 1.179 11.378 3.463 16.622l21.592 49.573c3.654 8.39 5.541 17.444 5.541 26.595v16.899c0 11.875-3.175 23.533-9.195 33.769-7.198 12.237-20.334 19.75-34.531 19.75h-57.106v60.462c0 5.69 4.612 10.302 10.302 10.302h84.502c5.69 0 10.302-4.612 10.302-10.302v-60.462l11.618-19.75c6.021-10.235 9.195-21.894 9.195-33.768v-16.9c-.001-9.151-1.887-18.204-5.541-26.595z" fill="#ffcbbe"/><path d="m74.958 257.929c4.267 0 7.726-3.459 7.726-7.726v-97.465c-9.188 4.846-15.453 14.487-15.453 25.598v71.867c0 4.267 3.46 7.726 7.727 7.726z" fill="#ffcbbe"/><g><path d="m333.072 194.549h-46.902c-3.414 0-6.181-2.767-6.181-6.181v-46.902c0-3.414-2.767-6.181-6.181-6.181h-35.613c-3.414 0-6.181 2.767-6.181 6.181v46.902c0 3.414-2.767 6.181-6.181 6.181h-46.903c-3.414 0-6.181 2.767-6.181 6.181v35.613c0 3.414 2.767 6.181 6.181 6.181h46.902c3.414 0 6.181 2.767 6.181 6.181v46.902c0 3.414 2.767 6.181 6.181 6.181h35.613c3.414 0 6.181-2.767 6.181-6.181v-46.902c0-3.414 2.767-6.181 6.181-6.181h46.902c3.414 0 6.181-2.767 6.181-6.181v-35.613c.001-3.414-2.767-6.181-6.18-6.181z" fill="#d8e2f1"/></g></g></svg>