<svg id="Capa_1" enable-background="new 0 0 511.807 511.807" height="512" viewBox="0 0 511.807 511.807" width="512" xmlns="http://www.w3.org/2000/svg"><g><g><path d="m481.1 332.54-87.279-87.279-74.238 74.238-74.253 74.253 87.279 87.265c41.019 41.049 107.446 41.045 148.491 0 40.943-40.928 40.943-107.549 0-148.477z" fill="#fb9"/><path d="m481.1 332.54-87.279-87.279-74.238 74.238 161.517 161.518c40.943-40.928 40.943-107.549 0-148.477z" fill="#ff9680"/><path d="m179.262 30.701c-40.928-40.928-107.549-40.928-148.477 0-41.041 41.039-41.052 107.468 0 148.491l87.265 87.279 74.253-74.253 74.238-74.238z" fill="#fb9"/><path d="m179.262 30.701c-40.928-40.928-107.549-40.928-148.477 0l161.518 161.518 74.238-74.238z" fill="#ff9680"/></g><path d="m481.1 30.701c-40.942-40.913-107.549-40.942-148.491 0l-301.824 301.839c-41.06 41.028-41.032 107.444 0 148.477 41.043 41.043 107.459 41.047 148.477 0l301.838-301.824c40.928-40.928 40.928-107.549 0-148.492z" fill="#ffd9b3"/><path d="m179.262 481.017 301.838-301.824c40.928-40.928 40.928-107.549 0-148.491l-450.315 450.315c41.043 41.043 107.459 41.046 148.477 0z" fill="#fb9"/><circle cx="342.211" cy="127.164" fill="#fb9" r="15"/><circle cx="384.637" cy="169.591" fill="#ff9680" r="15"/><circle cx="384.637" cy="84.738" fill="#fb9" r="15"/><circle cx="427.064" cy="127.164" fill="#ff9680" r="15"/><circle cx="84.81" cy="384.565" fill="#fb9" r="15"/><circle cx="127.237" cy="426.992" fill="#ff9680" r="15"/><circle cx="127.237" cy="342.139" fill="#fb9" r="15"/><circle cx="169.663" cy="384.565" fill="#ff9680" r="15"/><path d="m352.82 201.418-21.218-21.218-21.218-21.218c-5.859-5.859-15.352-5.859-21.211 0l-130.122 130.122c-5.859 5.859-5.859 15.352 0 21.211l21.218 21.218 21.218 21.218c5.859 5.859 15.352 5.859 21.211 0l130.122-130.122c5.86-5.859 5.86-15.352 0-21.211z" fill="#f3f5f9"/><path d="m222.698 352.751 130.122-130.122c5.859-5.859 5.859-15.352 0-21.211l-21.218-21.218-151.333 151.333 21.218 21.218c5.86 5.859 15.352 5.859 21.211 0z" fill="#e2dff4"/></g></svg>